<svg version="1.0" xmlns="http://www.w3.org/2000/svg" width="18px" height="30px" viewBox="0 0 18 30" preserveAspectRatio="xMidYMid meet">
    <g transform="translate(0,30) scale(0.1,-0.1)" fill="rgb(205, 205, 205)" stroke="none">
        <path id="palo" d="M0 145 l0 -145 40 0 40 0 0 145 0 145 -40 0 -40 0 0 -145z m70 0 l0 -135 -30 0 -30 0 0 135 0 135 30 0 30 0 0 -135z"/>
        <path d="M100 145 l0 -145 40 0 40 0 0 145 0 145 -40 0 -40 0 0 -145z m70 0 l0 -135 -30 0 -30 0 0 135 0 135 30 0 30 0 0 -135z"/>
    </g>
</svg>
