<svg version="1.0" xmlns="http://www.w3.org/2000/svg" id="view-4" width="42px" height="40px" viewBox="0 0 42 40px" preserveAspectRatio="xMidYMid meet">
    <g transform="translate(0,34) scale(0.1,-0.1)" fill="rgb(219, 219, 219)" stroke="none">
        <path d="M0 215 l0 -65 45 0 45 0 0 65 0 65 -45 0 -45 0 0 -65z m80 0 l0 -55 -35 0 -35 0 0 55 0 55 35 0 35 0 0 -55z"/>
        <path d="M110 215 l0 -65 45 0 45 0 0 65 0 65 -45 0 -45 0 0 -65z m80 0 l0 -55 -35 0 -35 0 0 55 0 55 35 0 35 0 0 -55z"/>
        <path d="M220 215 l0 -65 45 0 45 0 0 65 0 65 -45 0 -45 0 0 -65z m80 0 l0 -55 -35 0 -35 0 0 55 0 55 35 0 35 0 0 -55z"/>
        <path d="M330 215 l0 -65 45 0 45 0 0 65 0 65 -45 0 -45 0 0 -65z m80 0 l0 -55 -35 0 -35 0 0 55 0 55 35 0 35 0 0 -55z"/>
        <path d="M0 65 l0 -65 45 0 45 0 0 65 0 65 -45 0 -45 0 0 -65z m80 0 l0 -55 -35 0 -35 0 0 55 0 55 35 0 35 0 0 -55z"/>
        <path d="M110 65 l0 -65 45 0 45 0 0 65 0 65 -45 0 -45 0 0 -65z m80 0 l0 -55 -35 0 -35 0 0 55 0 55 35 0 35 0 0 -55z"/>
        <path d="M220 65 l0 -65 45 0 45 0 0 65 0 65 -45 0 -45 0 0 -65z m80 0 l0 -55 -35 0 -35 0 0 55 0 55 35 0 35 0 0 -55z"/>
        <path d="M330 65 l0 -65 45 0 45 0 0 65 0 65 -45 0 -45 0 0 -65z m80 0 l0 -55 -35 0 -35 0 0 55 0 55 35 0 35 0 0 -55z"/>
    </g>
</svg>
